<?xml version="1.0"?>
<svg width="640" height="512" xmlns="http://www.w3.org/2000/svg" xmlns:svg="http://www.w3.org/2000/svg">
 <!--! Font Awesome Free 6.2.1 by @fontawesome - https://fontawesome.com License - https://fontawesome.com/license/free (Icons: CC BY 4.0, Fonts: SIL OFL 1.1, Code: MIT License) Copyright 2022 Fonticons, Inc. -->

 <g class="layer">
  <title>Layer 1</title>
  <path d="m524.53,69.84a1.5,1.5 0 0 0 -0.76,-0.7a485.06,485.06 0 0 0 -119.69,-37.11a1.82,1.82 0 0 0 -1.92,0.91a337.46,337.46 0 0 0 -14.9,30.6a447.85,447.85 0 0 0 -134.43,0a309.54,309.54 0 0 0 -15.13,-30.6a1.89,1.89 0 0 0 -1.93,-0.91a483.69,483.69 0 0 0 -119.69,37.11a1.71,1.71 0 0 0 -0.78,0.67c-76.23,113.84 -97.11,224.88 -86.87,334.54a2.02,2.02 0 0 0 0.77,1.38a487.67,487.67 0 0 0 146.82,74.19a1.9,1.9 0 0 0 2.06,-0.68a348.2,348.2 0 0 0 30.04,-48.84a1.86,1.86 0 0 0 -1.02,-2.59a321.17,321.17 0 0 1 -45.87,-21.85a1.89,1.89 0 0 1 -0.18,-3.13c3.08,-2.31 6.16,-4.71 9.11,-7.13a1.82,1.82 0 0 1 1.9,-0.26c96.23,43.92 200.41,43.92 295.5,0a1.81,1.81 0 0 1 1.92,0.23c2.95,2.43 6.03,4.85 9.13,7.16a1.88,1.88 0 0 1 -0.16,3.13a301.41,301.41 0 0 1 -45.89,21.83a1.88,1.88 0 0 0 -1,2.61a391.06,391.06 0 0 0 30.02,48.81a1.86,1.86 0 0 0 2.06,0.7a486.05,486.05 0 0 0 147.06,-74.18a1.88,1.88 0 0 0 0.77,-1.35c12.26,-126.79 -20.54,-236.91 -86.94,-334.54zm-302.04,267.74c-28.97,0 -52.84,-26.59 -52.84,-59.24s23.41,-59.24 52.84,-59.24c29.67,0 53.31,26.82 52.84,59.24c0,32.65 -23.41,59.24 -52.84,59.24zm195.38,0c-28.97,0 -52.84,-26.59 -52.84,-59.24s23.41,-59.24 52.84,-59.24c29.67,0 53.31,26.82 52.84,59.24c0,32.65 -23.17,59.24 -52.84,59.24z" fill="#c6c6c6" id="svg_1"/>
 </g>
</svg>