<?xml version="1.0" encoding="utf-8"?>
<svg viewBox="0.719 0.162 289.48 431.29" xmlns="http://www.w3.org/2000/svg">
  <path d="M 211.442 263.734 C 218.958 258.09 229.387 253.205 229.387 253.205 C 229.387 253.205 199.709 259.101 170.185 261.797 C 134.066 265.082 95.262 265.756 75.784 262.892 C 29.695 256.153 101.09 237.537 101.09 237.537 C 101.09 237.537 73.407 235.515 39.281 253.542 C -0.979 274.937 138.974 284.709 211.442 263.734 Z M 145.952 236.695 C 131.382 200.726 82.225 169.138 145.952 113.88 C 225.445 44.976 184.679 0.162 184.679 0.162 C 201.166 71.341 126.704 92.905 99.787 137.129 C 81.459 167.369 108.759 199.8 145.952 236.695 Z M 233.835 88.272 C 233.912 88.272 99.48 125.167 163.667 206.37 C 182.608 230.293 158.682 251.857 158.682 251.857 C 158.682 251.857 206.764 224.565 184.679 190.45 C 164.05 158.609 148.253 142.772 233.835 88.272 Z M 229.157 316.128 C 228.738 316.931 228.222 317.667 227.623 318.318 C 326.012 289.931 289.816 218.163 242.807 236.358 C 240.268 237.382 238.074 239.233 236.519 241.664 C 239.264 240.573 242.085 239.728 244.954 239.137 C 268.727 233.662 302.853 274.095 229.157 316.128 Z M 265.322 368.607 C 265.322 368.607 276.442 378.631 253.129 386.465 C 208.728 401.206 68.468 405.67 29.511 387.054 C 15.477 380.4 41.781 371.05 50.063 369.112 C 58.652 367.09 63.637 367.427 63.637 367.427 C 48.069 355.382 -37.053 391.097 20.385 401.29 C 177.01 429.256 305.966 388.739 265.322 368.607 Z M 93.882 333.733 C 33.529 352.265 130.615 390.508 207.455 354.371 C 199.961 351.173 192.726 347.284 185.829 342.747 C 151.55 349.907 135.676 350.412 104.541 346.537 C 78.851 343.336 93.882 333.733 93.882 333.733 Z M 231.764 415.61 C 171.412 428.077 96.949 426.645 52.855 418.642 C 52.855 418.558 61.904 426.813 108.376 430.098 C 179.081 435.068 287.669 427.319 290.199 390.592 C 290.199 390.592 285.292 404.491 231.764 415.61 Z M 198.329 297.512 C 152.931 307.115 126.627 306.862 93.422 303.072 C 67.732 300.124 84.526 286.478 84.526 286.478 C 17.962 310.737 121.489 338.198 214.51 308.294 C 208.498 305.963 202.989 302.292 198.329 297.512 Z" style="fill: rgb(198, 198, 198);"/>
</svg>