<?xml version="1.0"?>
<svg width="512" height="512" xmlns="http://www.w3.org/2000/svg" xmlns:svg="http://www.w3.org/2000/svg">
 <!--! Font Awesome Free 6.2.1 by @fontawesome - https://fontawesome.com License - https://fontawesome.com/license/free (Icons: CC BY 4.0, Fonts: SIL OFL 1.1, Code: MIT License) Copyright 2022 Fonticons, Inc. -->

 <g class="layer">
  <title>Layer 1</title>
  <path d="m459.37,151.72c0.32,4.54 0.32,9.09 0.32,13.64c0,138.72 -105.58,298.56 -298.55,298.56c-59.45,0 -114.68,-17.22 -161.14,-47.11c8.45,0.98 16.57,1.3 25.34,1.3c49.05,0 94.21,-16.57 130.27,-44.83c-46.13,-0.98 -84.79,-31.19 -98.11,-72.77c6.5,0.97 13,1.62 19.82,1.62c9.42,0 18.84,-1.3 27.61,-3.57c-48.08,-9.75 -84.14,-51.98 -84.14,-102.99l0,-1.29c13.97,7.79 30.22,12.66 47.43,13.31c-28.26,-18.84 -46.78,-51 -46.78,-87.39c0,-19.49 5.2,-37.36 14.3,-52.95c51.65,63.67 129.3,105.26 216.36,109.81c-1.62,-7.8 -2.6,-15.92 -2.6,-24.04c0,-57.83 46.78,-104.94 104.94,-104.94c30.21,0 57.5,12.67 76.67,33.14c23.71,-4.55 46.45,-13.32 66.59,-25.34c-7.79,24.36 -24.36,44.83 -46.13,57.83c21.12,-2.28 41.59,-8.13 60.43,-16.25c-14.29,20.79 -32.16,39.31 -52.63,54.26z" fill="#c6c6c6" id="svg_1"/>
 </g>
</svg>